Format                           : AVI
Format/Info                      : Audio Video Interleave
File size                        : 694 MiB
Duration                         : 2h 6mn
Overall bit rate                 : 768 Kbps

Video
ID                               : 0
Format                           : MPEG-4 Visual
Format profile                   : Simple@L1
Format settings, BVOP            : No
Format settings, QPel            : No
Format settings, GMC             : No warppoints
Format settings, Matrix          : Default (H.263)
Codec ID                         : DX50
Codec ID/Hint                    : DivX 5
Duration                         : 2h 6mn
Bit rate                         : 659 Kbps
Width                            : 640 pixels
Height                           : 208 pixels
Display aspect ratio             : 3.077
Frame rate                       : 23.976 fps
Resolution                       : 8 bits
Colorimetry                      : 4:2:0
Scan type                        : Progressive
Bits/(Pixel*Frame)               : 0.206
Stream size                      : 596 MiB (86%)
Writing library                  : Lavc51.40.4

Audio
ID                               : 1
Format                           : MPEG Audio
Format version                   : Version 1
Format profile                   : Layer 3
Codec ID                         : 55
Codec ID/Hint                    : MP3
Duration                         : 2h 6mn
Bit rate mode                    : Constant
Bit rate                         : 96.0 Kbps
Channel(s)                       : 2 channels
Sampling rate                    : 48.0 KHz
Stream size                      : 86.8 MiB (13%)
Alignment                        : Split accross interleaves
Interleave, duration             : 24 ms (0.58 video frame)